HIERARCHY
ROOT Hips
{
	OFFSET	0.00	0.00	0.00
	CHANNELS 6 Xposition Yposition Zposition Zrotation Xrotation Yrotation
	JOINT LeftUpLeg
	{
		OFFSET	 0.126116	-0.014019	-0.065224
		CHANNELS 3 Zrotation Xrotation Yrotation
		JOINT LeftLeg
		{
			OFFSET	 0.000000	 0.000000	 0.569914
			CHANNELS 3 Zrotation Xrotation Yrotation
			JOINT LeftFoot
			{
				OFFSET	 0.000000	 0.000000	 0.544423
				CHANNELS 3 Zrotation Xrotation Yrotation
				JOINT LeftToeBase
				{
					OFFSET	 0.000000	 0.000000	 0.207117
					CHANNELS 3 Zrotation Xrotation Yrotation
					End Site
					{
						OFFSET	 0.000000	 0.000000	 0.207117
					}
				}
			}
		}
	}
	JOINT RightUpLeg
	{
		OFFSET	-0.124023	-0.008373	-0.065224
		CHANNELS 3 Zrotation Xrotation Yrotation
		JOINT RightLeg
		{
			OFFSET	 0.000000	 0.000000	 0.570047
			CHANNELS 3 Zrotation Xrotation Yrotation
			JOINT RightFoot
			{
				OFFSET	 0.000000	 0.000000	 0.544354
				CHANNELS 3 Zrotation Xrotation Yrotation
				JOINT RightToeBase
				{
					OFFSET	 0.000000	 0.000000	 0.207540
					CHANNELS 3 Zrotation Xrotation Yrotation
					End Site
					{
						OFFSET	 0.000000	 0.000000	 0.207540
					}
				}
			}
		}
	}
	JOINT Spine
	{
		OFFSET	 0.000184	-0.007763	 0.117403
		CHANNELS 3 Zrotation Xrotation Yrotation
		JOINT Spine1
		{
			OFFSET	 0.000000	 0.000000	 0.137269
			CHANNELS 3 Zrotation Xrotation Yrotation
			JOINT Spine2
			{
				OFFSET	 0.000000	 0.000000	 0.156879
				CHANNELS 3 Zrotation Xrotation Yrotation
				JOINT LeftShoulder
				{
					OFFSET	 0.080501	-0.002496	 0.160144
					CHANNELS 3 Zrotation Xrotation Yrotation
					JOINT LeftArm
					{
						OFFSET	 0.000000	 0.000000	 0.164363
						CHANNELS 3 Zrotation Xrotation Yrotation
						JOINT LeftForeArm
						{
							OFFSET	 0.000000	 0.000000	 0.364576
							CHANNELS 3 Zrotation Xrotation Yrotation
							JOINT LeftHand
							{
								OFFSET	 0.000000	 0.000000	 0.360812
								CHANNELS 3 Zrotation Xrotation Yrotation
								JOINT LeftHandIndex1
								{
									OFFSET	 0.000000	 0.000000	 0.086006
									CHANNELS 3 Zrotation Xrotation Yrotation
									JOINT LeftHandIndex2
									{
										OFFSET	 0.000000	 0.000000	 0.047236
										CHANNELS 3 Zrotation Xrotation Yrotation
										JOINT LeftHandIndex3
										{
											OFFSET	-0.004284	-0.000551	 0.038166
											CHANNELS 3 Zrotation Xrotation Yrotation
											End Site
											{
												OFFSET	-0.004284	-0.000551	 0.038166
											}
										}
									}
								}
							}
						}
					}
				}
				JOINT Neck
				{
					OFFSET	 0.000000	 0.000000	 0.176489
					CHANNELS 3 Zrotation Xrotation Yrotation
					JOINT Head
					{
						OFFSET	 0.000000	-0.001747	 0.077940
						CHANNELS 3 Zrotation Xrotation Yrotation
						End Site
						{
							OFFSET	 0.000000	-0.001747	 0.077940
						}
					}
				}
				JOINT RightShoulder
				{
					OFFSET	-0.080363	 0.000306	 0.159706
					CHANNELS 3 Zrotation Xrotation Yrotation
					JOINT RightArm
					{
						OFFSET	 0.000000	 0.000000	 0.164196
						CHANNELS 3 Zrotation Xrotation Yrotation
						JOINT RightForeArm
						{
							OFFSET	 0.000000	 0.000000	 0.365611
							CHANNELS 3 Zrotation Xrotation Yrotation
							JOINT RightHand
							{
								OFFSET	 0.000000	 0.000000	 0.360648
								CHANNELS 3 Zrotation Xrotation Yrotation
								JOINT RightHandIndex1
								{
									OFFSET	 0.000000	 0.000000	 0.069977
									CHANNELS 3 Zrotation Xrotation Yrotation
									JOINT RightHandIndex2
									{
										OFFSET	 0.000000	 0.000000	 0.052305
										CHANNELS 3 Zrotation Xrotation Yrotation
										JOINT RightHandIndex3
										{
											OFFSET	 0.009002	-0.000782	 0.042196
											CHANNELS 3 Zrotation Xrotation Yrotation
											End Site
											{
												OFFSET	 0.009002	-0.000782	 0.042196
											}
										}
									}
								}
							}
						}
					}
				}
			}
		}
	}
}
MOTION
Frames:    12
Frame Time: 0.03333334
-0.056442	-2.219548	 1.155050	 4.009582	-1.826831	-3.415291	 1.153411	-18.733270	-170.662200	 0.203455	-51.467030	-0.105524	 91.808460	 82.642110	-95.707500	-2.371527	 31.255160	-0.061800	-1.065599	-33.624790	-174.505600	 13.593520	-62.991630	 12.845400	 17.211300	 74.320810	-12.902620	 2.357760	 33.176730	 0.107332	-0.359340	 9.046303	 1.368231	 0.538447	 2.661942	 1.761868	-4.917912	-2.334013	-2.287536	-93.749880	 58.847990	 175.803800	 22.047620	 42.873940	-26.534550	-0.373901	-1.684471	-13.520330	 0.752274	-3.561485	-5.714031	-4.869449	 19.243110	-2.787140	-3.891335	 21.347100	 2.212721	-4.807980	 5.548779	 0.146775	-0.131525	-5.008648	 0.155769	-7.089479	 2.291569	 2.553397	 89.838520	 61.570480	-179.865900	-20.599580	 52.149000	 10.649100	-1.161240	-2.676781	 14.025530	-5.014779	 10.365760	 0.803275	 6.305647	 26.103930	-0.579921	 1.712734	 46.059740	-6.838523	 0.328490	 25.137050	 3.669718
-0.057318	-2.236338	 1.155237	 5.581119	-0.871535	-3.400018	-0.280572	-18.992930	-170.767300	 1.378467	-51.278480	 0.800315	 89.220380	 82.685550	-93.829170	-2.368773	 31.718610	-0.072274	-4.849558	-36.113120	-174.576900	 15.402300	-60.798600	 14.195040	 74.416810	 83.424580	-72.307080	 2.358980	 32.998580	 0.103193	-1.440207	 8.508282	 1.102542	 0.595079	 1.861364	 2.049206	-5.161177	-2.243149	-2.336763	-94.069630	 59.018220	 175.101200	 22.946090	 41.473340	-27.262560	-1.687490	-1.470740	-14.527830	 1.798905	-4.077587	-7.918803	-4.865453	 19.346260	-2.794046	-3.876810	 21.533110	 2.197958	-4.805526	 5.577713	 0.145086	-0.046808	-5.099245	 0.220055	-7.041992	 2.213290	 2.233861	 89.730110	 61.708820	 179.875900	-19.600730	 52.895560	 9.061379	-1.924584	-2.757707	 13.568640	-5.110762	 11.343350	 0.396063	 6.281045	 23.888150	-0.546901	 2.003485	 43.728720	-7.097995	 0.731804	 23.367270	 3.465433
-0.057604	-2.260787	 1.154893	 6.484524	 0.334026	-3.780223	-0.978584	-18.822510	-170.536300	 1.879052	-50.751140	 1.182112	 92.198250	 82.812140	-97.098230	-2.365458	 32.254900	-0.084492	-6.726792	-39.302990	-174.265300	 16.590290	-57.516970	 14.762740	 123.779600	 78.273910	-124.466200	 2.361459	 32.627720	 0.094606	-1.925995	 7.567422	 1.129817	 0.645065	 1.613891	 2.414261	-5.360557	-2.313798	-2.473888	-94.376710	 58.943860	 174.457700	 22.831200	 39.621720	-27.428530	-2.699152	-1.398827	-16.723560	 2.143229	-5.028974	-7.779272	-4.845685	 19.821080	-2.819518	-3.850314	 21.870070	 2.171038	-4.790324	 5.756711	 0.134582	-0.004570	-5.185808	 0.316762	-7.093871	 2.153274	 2.136018	 89.553120	 61.926060	 179.448500	-18.507430	 53.731470	 7.321884	-3.480105	-3.038766	 13.103950	-5.746386	 12.369660	-0.729428	 6.236351	 21.139970	-0.623701	 2.263680	 41.450150	-7.327094	 1.322693	 20.673640	 3.185107
-0.057926	-2.292176	 1.153301	 6.743702	 0.775451	-4.237800	-1.180202	-17.284270	-170.278900	 2.130294	-50.049590	 1.362869	 91.081690	 82.922790	-96.096550	-2.352286	 34.169070	-0.129053	-4.868726	-41.399850	-173.077400	 15.548860	-53.551530	 13.242140	 138.121900	 68.577260	-140.293300	 2.346660	 34.692910	 0.143146	-2.276103	 7.013955	 1.401531	 0.739849	 2.286132	 2.567724	-5.400020	-2.648577	-2.539298	-94.507510	 58.871470	 174.191000	 21.357540	 37.912360	-27.454250	-3.470831	-1.347515	-19.153810	 1.623550	-5.517266	-7.280475	-4.829322	 20.337280	-2.878547	-3.811252	 22.361490	 2.131363	-4.757795	 6.138105	 0.112038	 0.049650	-5.320740	 0.348585	-7.048665	 2.080325	 1.972449	 89.410870	 62.022790	 179.102700	-16.898600	 54.488680	 4.934488	-5.431833	-3.532618	 13.144260	-5.999715	 12.797120	-2.786658	 6.182373	 18.077250	-0.713262	 2.656358	 37.619970	-7.666226	 1.975550	 17.562180	 2.903445
-0.060225	-2.332978	 1.149677	 7.139728	 0.729664	-4.259009	-1.893552	-14.848370	-170.633500	 2.818901	-49.502570	 1.875858	 73.618910	 82.928960	-78.829660	-2.304120	 39.457380	-0.261181	-3.699491	-42.796500	-172.387700	 14.366580	-48.155060	 11.384040	 125.871800	 71.034020	-128.814100	 2.337589	 35.810640	 0.170210	-3.088792	 7.085405	 1.377754	 0.857434	 2.822814	 2.679629	-5.395319	-3.034187	-2.637702	-94.528580	 59.111410	 174.106600	 19.005340	 36.554500	-27.952510	-3.559735	-1.442283	-20.832870	 1.022157	-7.086099	-7.973698	-4.867013	 20.568820	-3.165993	-3.772514	 22.842610	 2.092021	-4.703851	 6.766141	 0.074396	 0.156222	-5.455546	 0.301851	-6.841177	 2.148517	 1.653469	 89.356730	 61.758260	 178.981900	-15.095570	 54.958620	 1.341293	-7.025872	-4.290858	 14.285270	-5.848404	 12.281430	-4.610188	 6.178472	 14.801320	-0.519312	 2.969430	 34.182770	-7.929764	 2.629650	 14.310480	 2.653022
-0.065852	-2.385841	 1.143576	 7.623567	 0.205850	-3.209803	-2.528158	-11.237120	-172.468200	 1.956216	-49.211850	 1.214185	 37.661650	 80.034630	-41.514390	-2.126505	 50.470200	-0.602772	-1.926396	-43.142700	-172.612200	 8.156313	-42.404090	 6.037889	 68.676540	 79.941470	-66.715140	 2.340201	 35.498690	 0.162592	-4.134329	 7.153802	 0.368376	 0.972230	 4.288909	 2.795700	-5.444723	-3.506027	-2.902461	-94.442360	 59.347490	 174.252100	 16.574930	 34.938410	-29.635450	-3.898158	-1.345291	-21.299620	 0.327340	-7.665992	-8.225163	-4.894949	 20.746640	-3.385779	-3.750780	 23.109780	 2.069967	-4.624579	 7.678822	 0.018535	 0.277870	-5.468309	 0.243947	-6.571765	 2.368472	 1.893581	 89.338000	 61.403560	 178.950500	-13.749620	 55.070300	-1.691363	-8.288201	-4.915073	 15.082070	-6.168728	 11.477870	-5.545164	 6.285717	 11.603550	 0.107079	 3.159916	 31.905110	-8.086546	 3.183991	 11.458720	 2.467373
-0.073043	-2.446789	 1.133934	 9.355450	-0.893431	-1.988886	-2.794592	-6.391241	-175.073800	 0.238464	-48.678260	-0.085808	 13.590310	 66.887240	-14.162260	-1.607263	 64.127510	-1.310566	 0.135231	-44.469710	-171.998300	 8.361949	-38.980090	 5.766262	 6.496910	 66.750400	-1.967948	 2.339715	 35.557250	 0.164018	-5.727014	 7.506395	-0.662972	 0.708853	 6.492537	 2.472789	-5.696484	-4.126013	-3.051135	-94.329560	 59.141620	 174.527500	 14.855220	 32.682760	-31.619630	-4.137053	-1.338121	-22.624260	 0.519811	-5.896627	-8.103518	-4.863763	 21.082780	-3.315152	-3.709529	 23.611840	 2.028089	-4.538983	 8.650501	-0.042491	 0.391154	-5.371674	 0.272170	-6.441546	 2.870566	 2.210489	 89.123570	 61.193260	 178.455100	-12.639410	 54.913050	-3.717382	-8.114882	-4.956730	 15.356880	-6.338304	 10.663180	-4.202029	 6.355525	 9.178556	 0.443094	 3.355037	 29.412830	-8.243947	 3.544953	 9.559362	 2.360256
-0.083382	-2.515885	 1.120833	 10.400960	-1.480041	-0.548523	 2.553021	-1.350086	 179.657000	 2.065939	-47.543660	 1.264168	 4.534227	 44.900410	 0.999447	-1.276530	 68.530120	-1.699658	-1.824721	-47.947900	-173.879900	 7.702776	-38.478590	 5.287971	 2.873525	 52.509330	 2.320276	 2.364833	 32.103490	 0.082560	-6.593611	 7.584128	-1.464623	 0.234189	 8.153591	 1.469399	-5.923683	-4.573078	-2.892707	-94.121350	 59.824540	 174.871700	 13.928020	 31.559640	-33.406440	-2.945110	-2.005206	-24.457880	 1.709099	-4.288351	-8.843919	-4.776337	 21.396150	-2.895543	-3.635302	 24.498250	 1.952775	-4.476524	 9.350461	-0.087465	 0.358506	-5.365068	 0.183549	-6.476253	 3.322512	 2.270935	 88.992880	 60.343670	 178.200600	-11.779810	 54.089060	-6.448447	-6.571292	-5.029912	 17.085750	-5.321191	 9.293481	-2.274201	 6.394920	 8.831297	 0.603983	 3.386647	 28.993010	-8.269112	 3.675678	 8.864021	 2.324222
-0.092979	-2.601763	 1.109565	 8.413484	-2.251400	 0.695400	 10.614450	 5.437149	 173.661300	-0.894341	-42.870840	-0.848507	 7.647609	 35.078920	 0.389503	-2.375656	 30.520570	-0.045346	-1.810972	-47.569870	-177.247300	 5.981393	-36.926900	 4.060919	 2.817962	 48.039740	 4.239057	 2.374335	 30.484160	 0.045997	-5.670626	 8.196824	-2.277328	-0.341137	 7.874375	 0.981588	-5.636866	-4.250059	-2.917515	-94.026720	 59.674690	 175.100600	 12.706400	 31.032060	-33.047850	-1.798838	-2.663488	-25.577750	 1.855265	-3.936656	-8.077717	-4.713289	 22.160320	-2.755069	-3.559759	 25.378760	 1.876170	-4.399317	 10.205150	-0.143562	 0.239320	-5.393567	 0.157690	-6.603334	 3.334588	 2.441801	 89.163730	 60.289700	 178.592800	-11.977600	 53.947940	-7.547007	-5.310720	-4.394614	 16.325840	-4.176548	 7.598044	-0.667995	 6.402735	 10.791560	 0.625615	 3.227899	 31.055580	-8.141773	 3.485428	 9.874712	 2.377154
-0.102901	-2.714433	 1.100680	 6.233238	-3.155453	 1.303183	 13.344530	 12.269560	 170.137100	-3.607423	-41.035860	-2.602309	 9.906325	 45.390480	-3.187432	-2.380972	 29.492960	-0.022640	-1.927685	-43.547330	 178.538600	 5.084023	-38.341140	 3.631748	 2.299001	 52.963280	 7.053714	 2.374317	 30.486650	 0.046056	-5.084979	 8.942947	-2.429425	-1.543863	 5.817085	-0.073569	-5.172474	-3.066628	-2.206037	-93.889120	 59.500850	 175.423300	 12.577800	 31.763020	-30.194310	-0.443688	-3.601654	-27.433400	 1.206687	-3.920877	-7.166095	-4.606127	 23.602250	-2.539969	-3.469104	 26.407500	 1.784274	-4.254658	 11.775200	-0.250133	 0.082495	-5.259604	 0.020130	-6.701479	 3.215629	 2.269896	 89.484400	 60.108510	 179.326300	-13.486250	 53.881370	-7.053059	-3.072840	-3.333386	 14.787390	-2.581808	 4.893101	 0.181261	 6.375286	 14.222920	 0.471077	 2.960228	 34.289180	-7.922110	 3.020095	 12.310450	 2.519639
-0.113222	-2.823803	 1.099109	 4.807878	-3.698564	 1.230453	 7.855648	 13.556310	 172.492000	-1.960386	-48.222930	-1.725394	 6.661244	 61.877730	-1.811416	-2.376233	 30.413780	-0.042971	-1.868801	-42.850770	 176.672800	 4.043368	-46.741740	 3.500502	 3.374551	 61.481310	 7.791965	 2.374305	 30.489070	 0.046107	-3.848135	 9.368672	-2.211762	-2.119849	 3.521355	-0.509429	-4.898000	-1.813318	-1.656960	-93.744670	 59.831270	 175.694000	 13.812490	 33.790990	-28.272580	 1.970798	-4.564871	-25.884300	 0.896283	-1.395441	-5.441115	-4.578338	 24.274150	-2.587507	-3.400532	 27.166140	 1.714795	-4.151097	 12.874100	-0.327524	-0.087932	-5.064624	-0.063151	-6.874165	 3.040597	 2.143710	 89.590770	 59.755230	 179.571800	-15.771750	 53.731150	-4.415323	-0.636581	-2.178238	 12.181240	-1.698788	 2.959048	 0.888628	 6.376316	 16.944950	 0.437380	 2.732051	 36.822020	-7.730555	 2.537658	 14.775490	 2.686237
-0.123689	-2.938306	 1.105622	 3.258873	-3.706415	 1.302739	 2.839539	 7.858788	 175.665500	-0.838087	-62.266420	-1.054038	-16.760300	 83.386510	 20.641730	-2.371166	 31.317170	-0.063198	-2.133890	-40.679670	 175.118400	 2.446765	-54.218320	 2.600745	 4.807014	 71.130790	 7.908128	 2.372760	 30.768740	 0.052359	-1.797185	 9.392082	-2.440823	-2.097225	 1.366609	-0.125689	-4.669016	-0.872277	-1.644678	-93.556940	 60.194810	 176.060900	 16.034500	 36.966940	-26.695980	 5.160108	-4.962412	-21.309120	 1.719642	 0.720779	-3.172160	-4.539131	 25.175130	-2.646440	-3.347210	 27.744650	 1.660800	-4.101763	 13.390210	-0.364699	-0.284015	-4.844484	-0.138401	-7.082380	 2.649373	 2.550225	 89.775180	 59.926230	 179.984500	-18.794250	 53.840320	-0.276778	 1.965329	-1.560437	 11.866470	-1.492542	 3.252118	 1.724114	 6.377939	 19.090400	 0.408052	 2.529503	 38.912510	-7.557628	 2.141036	 16.751760	 2.836993
